<svg id="Layer_1" data-name="Layer 1" xmlns="http://www.w3.org/2000/svg" xmlns:xlink="http://www.w3.org/1999/xlink" width="1920" height="1080" viewBox="0 0 1920 1080"><defs><style>.cls-1{fill:url(#linear-gradient);}.cls-2,.cls-5{fill:#fff;}.cls-2,.cls-3{opacity:0.05;}.cls-3,.cls-4{fill:#fffcfc;}</style><linearGradient id="linear-gradient" x1="960" y1="1080" x2="960" gradientUnits="userSpaceOnUse"><stop offset="0.13525" stop-color="#fff"/><stop offset="0.14716" stop-color="#f7f4f3"/><stop offset="0.20247" stop-color="#d5c3c1"/><stop offset="0.26176" stop-color="#b79793"/><stop offset="0.32375" stop-color="#9d716b"/><stop offset="0.38911" stop-color="#86504a"/><stop offset="0.45879" stop-color="#74362f"/><stop offset="0.53431" stop-color="#66221a"/><stop offset="0.61859" stop-color="#5d140b"/><stop offset="0.71876" stop-color="#570c03"/><stop offset="0.87568" stop-color="#550900"/></linearGradient></defs><rect class="cls-1" width="1920" height="1080"/><path class="cls-2" d="M0,221v80c64.79267,6.10489,132.53745,9.38864,203,9,460.92035-2.54233,839.19409-161.12781,1099-310H842C710.06537,88.94572,485.0119,210.01686,192,226A1197.58609,1197.58609,0,0,1,0,221Z" transform="translate(0)"/><path class="cls-3" d="M444,30A300.13828,300.13828,0,0,0,477,0H0V97a925.82861,925.82861,0,0,0,211,5C292.98709,94.48179,372.04984,86.21906,444,30Z" transform="translate(0)"/><polygon class="cls-4" points="1262 192 1254 193.183 1248.069 194.063 1247.189 200 1246 208 1244.817 200 1243.931 194.029 1238 193.166 1230 192 1238 190.834 1243.966 189.96 1244.834 184 1246 176 1247.166 184 1248.034 189.931 1254 190.811 1262 192"/><polygon class="cls-4" points="1469 282 1440.5 286.214 1419.369 289.349 1416.234 310.5 1412 339 1407.786 310.5 1404.631 289.227 1383.5 286.153 1355 282 1383.5 277.847 1404.753 274.732 1407.847 253.5 1412 225 1416.153 253.5 1419.247 274.631 1440.5 277.766 1469 282"/><polygon class="cls-4" points="1574 242 1561 243.922 1551.361 245.352 1549.931 255 1548 268 1546.078 255 1544.639 245.296 1535 243.894 1522 242 1535 240.106 1544.694 238.685 1546.106 229 1548 216 1549.894 229 1551.306 238.639 1561 240.069 1574 242"/><polygon class="cls-4" points="1320 415 1311 416.331 1304.327 417.321 1303.337 424 1302 433 1300.669 424 1299.673 417.282 1293 416.311 1284 415 1293 413.689 1299.711 412.705 1300.689 406 1302 397 1303.311 406 1304.289 412.673 1311 413.663 1320 415"/><polygon class="cls-4" points="918 290.5 908.25 291.942 901.021 293.014 899.949 300.25 898.5 310 897.058 300.25 895.979 292.972 888.75 291.921 879 290.5 888.75 289.079 896.021 288.014 897.079 280.75 898.5 271 899.921 280.75 900.979 287.979 908.25 289.051 918 290.5"/><polygon class="cls-4" points="833 366.75 825.375 367.877 819.722 368.716 818.883 374.375 817.75 382 816.623 374.375 815.778 368.683 810.125 367.861 802.5 366.75 810.125 365.639 815.811 364.806 816.639 359.125 817.75 351.5 818.861 359.125 819.689 364.778 825.375 365.617 833 366.75"/><polygon class="cls-4" points="234 351.875 224.438 353.289 217.348 354.341 216.296 361.438 214.875 371 213.461 361.438 212.402 354.3 205.313 353.268 195.75 351.875 205.313 350.482 212.443 349.437 213.482 342.313 214.875 332.75 216.268 342.313 217.307 349.402 224.438 350.454 234 351.875"/><polygon class="cls-4" points="346.125 310 336.563 311.414 329.473 312.466 328.421 319.563 327 329.125 325.586 319.563 324.527 312.425 317.438 311.393 307.875 310 317.438 308.607 324.568 307.562 325.607 300.438 327 290.875 328.393 300.438 329.432 307.527 336.563 308.579 346.125 310"/><polygon class="cls-4" points="304 385.938 296.469 387.051 290.885 387.879 290.056 393.469 288.938 401 287.824 393.469 286.99 387.847 281.406 387.035 273.875 385.938 281.406 384.84 287.022 384.017 287.84 378.406 288.938 370.875 290.035 378.406 290.853 383.99 296.469 384.819 304 385.938"/><path class="cls-5" d="M1920,819c-18.92712,22.89728-55.87268,60.95728-114,84-81.81335,32.43225-156.09,15.4931-187,8-105.07727-25.47235-104.09912-76.278-212-107-86.38074-24.59473-160.74573-13.02881-191-8-73.46887,12.21191-103.75769,36.05988-171,64-57.20184,23.76819-193.735,80.49976-326,61C580.48456,900.57874,592.759,818.09155,414,776c-123.16049-29.00006-223.28647-12.04877-256-5.55664A590.254,590.254,0,0,0,0,826.16357V1080H1920Z" transform="translate(0)"/><path class="cls-5" d="M433.991,805.90442,233.78345,790.06653q25.99922-46.01121,51.99845-92.02244,7.64637,1.608,15.29274,3.216,1.087-15.55446,2.174-31.10892l8.69125-1.03434c3.00049-33.03007,34.39078-55.01561,63.25449-48.6615,28.23492,6.21572,47.43581,38.09319,37.59034,68.97923q3.32808,3.27661,6.65611,6.55315-7.864,14.15741-15.728,28.31481,7.82081,2.37315,15.64162,4.74638Q426.67269,767.47667,433.991,805.90442Z" transform="translate(0)"/><path class="cls-5" d="M469.48457,619.80007Q435.15129,641.3734,400.818,662.94663q-17.133-10.39531-34.266-20.79071l91.42068-45.49076Z" transform="translate(0)"/><path class="cls-5" d="M466.42543,631.74794,446.97917,592.6678q12.6516-10.24671,25.30327-20.49333,13.15659,24.14279,26.31323,48.28547Z" transform="translate(0)"/></svg>
